<?xml version="1.0" standalone="no"?>
<!DOCTYPE svg PUBLIC "-//W3C//DTD SVG 20010904//EN"
 "http://www.w3.org/TR/2001/REC-SVG-20010904/DTD/svg10.dtd">
<svg version="1.0" xmlns="http://www.w3.org/2000/svg"
 width="128.000000pt" height="128.000000pt" viewBox="0 0 128.000000 128.000000"
 preserveAspectRatio="xMidYMid meet">
<metadata>
Created by potrace 1.14, written by Peter Selinger 2001-2017
</metadata>
<g transform="translate(0.000000,128.000000) scale(0.100000,-0.100000)"
fill="#000000" stroke="none">
<path d="M654 1001 c7 -11 46 -35 46 -28 0 3 -12 12 -26 22 -15 9 -23 12 -20
6z"/>
<path d="M760 990 c-13 -11 -29 -20 -37 -20 -8 0 -12 -3 -9 -8 2 -4 -13 -27
-35 -52 l-39 -44 -37 44 c-21 25 -49 55 -62 67 -25 24 -51 30 -51 12 0 -5 -4
-8 -8 -5 -4 2 -14 0 -22 -5 -11 -7 -7 -8 13 -5 20 4 30 -1 39 -17 6 -12 12
-24 12 -27 1 -3 5 -4 9 -2 5 1 6 -1 3 -6 -6 -10 49 -93 58 -87 3 3 4 2 1 -2
-7 -8 -8 -9 -120 -17 -49 -3 -100 -8 -111 -10 -12 -3 -37 -7 -55 -10 -122 -19
-299 -65 -299 -77 0 -5 19 -1 42 7 58 20 316 71 406 79 81 8 73 17 76 -87 1
-46 2 -48 29 -48 l28 0 -4 70 -3 70 50 0 c29 0 46 -4 39 -8 -18 -11 -22 -110
-6 -124 16 -13 43 -3 43 17 0 21 -17 19 -23 -2 -3 -10 -5 4 -4 30 0 36 4 47
14 43 9 -4 13 3 13 19 0 22 4 25 40 25 37 0 39 -2 31 -22 -4 -13 -9 -44 -10
-69 -2 -43 0 -47 24 -51 33 -7 39 6 39 82 l1 55 38 -4 c42 -4 42 -5 26 -96
l-10 -61 -57 7 c-76 9 -306 9 -363 0 -40 -6 -45 -5 -44 11 2 23 15 36 15 15 0
-10 8 -17 21 -17 12 0 18 4 13 11 -4 6 -12 35 -18 63 -9 39 -16 52 -32 54 -18
3 -20 -2 -18 -70 1 -40 2 -76 3 -79 1 -4 21 -4 46 -1 40 4 45 3 45 -16 0 -12
-4 -24 -10 -27 -10 -6 -9 -32 2 -50 7 -11 60 -13 56 -3 -2 3 6 16 17 29 12 13
14 19 5 14 -9 -5 -8 0 4 13 11 12 16 22 12 22 -4 0 -1 6 6 13 15 17 88 22 88
7 0 -6 5 -8 10 -5 6 3 10 1 10 -6 0 -7 9 -31 20 -54 18 -38 23 -41 51 -37 28
4 31 7 26 36 -2 17 -8 40 -12 50 -8 18 -4 18 56 13 35 -4 78 -9 94 -12 103
-19 186 -37 229 -50 51 -15 73 -19 64 -10 -7 7 -194 55 -243 62 -22 3 -42 7
-44 9 -2 2 1 23 7 46 23 90 23 96 5 102 -10 3 2 2 27 -1 25 -3 48 -10 51 -15
3 -5 0 -35 -7 -66 -17 -70 -17 -72 -1 -72 7 0 19 28 27 65 9 38 12 65 6 65 -5
0 -7 3 -4 6 5 5 120 -21 197 -45 19 -6 30 -7 25 -2 -13 13 -135 47 -234 65
-135 25 -140 26 -235 32 -102 6 -115 9 -115 24 0 6 5 8 12 4 8 -5 9 -2 5 10
-4 9 -3 15 1 12 4 -3 19 13 32 35 14 21 29 39 34 39 4 0 2 8 -5 17 -9 10 -9
14 -2 10 7 -5 16 1 23 12 14 28 -3 34 -30 11z m-190 -232 c0 -5 -4 -8 -10 -8
-5 0 -10 10 -10 23 0 18 2 19 10 7 5 -8 10 -18 10 -22z m242 -17 c-2 -23 -7
-41 -11 -41 -3 0 -5 20 -3 45 2 25 7 43 11 41 4 -3 5 -23 3 -45z m135 7 c-3
-8 -6 -5 -6 6 -1 11 2 17 5 13 3 -3 4 -12 1 -19z m-380 -55 c-3 -10 -5 -4 -5
12 0 17 2 24 5 18 2 -7 2 -21 0 -30z m362 -45 c1 -5 -5 -8 -13 -8 -9 0 -12 8
-8 27 5 25 6 25 13 8 4 -11 8 -23 8 -27z"/>
<path d="M570 969 c0 -5 5 -7 10 -4 6 3 10 8 10 11 0 2 -4 4 -10 4 -5 0 -10
-5 -10 -11z"/>
<path d="M480 960 c-13 -8 -12 -10 3 -10 9 0 17 5 17 10 0 12 -1 12 -20 0z"/>
<path d="M790 960 c0 -5 3 -9 8 -8 4 0 15 -2 25 -7 10 -4 21 -5 24 -2 3 4 15
2 27 -4 19 -9 20 -9 3 4 -10 8 -27 13 -37 10 -11 -3 -20 0 -20 6 0 6 -7 11
-15 11 -8 0 -15 -4 -15 -10z"/>
<path d="M438 953 c7 -3 16 -2 19 1 4 3 -2 6 -13 5 -11 0 -14 -3 -6 -6z"/>
<path d="M298 772 c-17 -3 -22 -14 -19 -37 1 -5 -5 -2 -12 8 -8 9 -22 17 -31
17 -17 0 -16 -18 5 -84 15 -47 11 -55 -33 -66 -100 -27 -149 -42 -145 -47 3
-2 31 3 63 13 33 9 109 27 169 40 61 12 98 23 83 23 -33 1 -40 11 -53 81 -8
45 -13 55 -27 52z m14 -112 c3 -16 1 -30 -4 -30 -4 0 -8 14 -8 30 0 17 2 30 4
30 2 0 6 -13 8 -30z m-29 -10 c3 -11 0 -23 -6 -27 -7 -3 -9 -3 -5 1 4 5 3 19
-3 33 -5 13 -5 22 0 19 5 -3 11 -15 14 -26z"/>
<path d="M89 680 c-14 -15 -14 -19 2 -39 11 -14 20 -18 24 -11 4 6 13 9 19 7
8 -3 13 5 13 24 0 15 -4 26 -9 23 -5 -3 -14 -2 -21 4 -8 6 -17 3 -28 -8z"/>
<path d="M1170 691 c0 -7 -6 -11 -14 -8 -10 4 -15 -4 -18 -24 -3 -21 -1 -28 7
-25 7 2 17 0 22 -5 5 -5 15 -1 25 10 14 16 14 20 -3 42 -11 14 -19 18 -19 10z"/>
<path d="M896 543 c21 -32 55 -86 77 -120 21 -35 43 -63 49 -63 11 0 12 -2
-75 133 -38 59 -73 107 -78 107 -5 0 7 -26 27 -57z"/>
<path d="M253 503 c-39 -48 -69 -91 -66 -95 2 -5 23 15 46 44 22 29 52 64 65
78 29 31 46 60 34 60 -5 0 -40 -39 -79 -87z"/>
<path d="M312 479 c-40 -61 -70 -114 -67 -117 7 -7 3 -12 80 106 36 56 65 107
63 113 -2 6 -36 -40 -76 -102z"/>
<path d="M930 582 c0 -4 10 -18 23 -32 12 -14 40 -47 62 -75 53 -66 62 -75 68
-69 7 7 -123 170 -140 178 -7 3 -13 2 -13 -2z"/>
<path d="M185 520 c-32 -33 -57 -62 -54 -64 3 -3 34 24 69 59 36 36 60 65 54
65 -5 0 -36 -27 -69 -60z"/>
<path d="M1035 550 c48 -52 100 -99 104 -94 6 6 -89 103 -114 116 -14 7 -11 1
10 -22z"/>
<path d="M96 535 c-11 -8 -17 -18 -13 -21 3 -3 18 3 33 15 30 23 10 29 -20 6z"/>
<path d="M1156 525 c25 -19 40 -19 24 0 -7 8 -20 15 -28 15 -13 0 -12 -3 4
-15z"/>
<path d="M525 463 c2 -10 4 -22 4 -27 1 -5 4 -6 8 -3 3 4 12 2 19 -4 10 -8 15
-5 20 16 5 19 9 23 15 14 4 -7 5 -17 3 -21 -3 -4 -1 -8 5 -8 15 0 9 39 -7 45
-8 3 -16 -3 -19 -16 -4 -12 -11 -18 -20 -15 -8 3 -17 6 -19 6 -3 0 -3 4 1 9 3
5 1 12 -4 15 -5 4 -8 -2 -6 -11z"/>
<path d="M880 470 c0 -18 71 -152 77 -146 6 6 -64 156 -72 156 -3 0 -5 -5 -5
-10z"/>
<path d="M433 450 c2 -30 22 -34 23 -5 l1 20 -5 -20 c-5 -18 -6 -18 -13 5 l-8
25 2 -25z"/>
<path d="M620 448 c0 -11 7 -18 18 -17 11 0 12 2 4 6 -9 3 -10 9 -3 17 8 9 6
13 -4 13 -8 0 -15 -9 -15 -19z"/>
<path d="M675 460 c3 -5 1 -10 -4 -10 -6 0 -11 -8 -11 -17 0 -14 2 -15 9 -4 5
7 13 11 19 7 6 -4 8 2 5 14 -3 11 -10 20 -15 20 -5 0 -6 -4 -3 -10z"/>
<path d="M760 459 c0 -5 5 -7 10 -4 6 3 10 8 10 11 0 2 -4 4 -10 4 -5 0 -10
-5 -10 -11z"/>
<path d="M793 453 c-3 -10 -9 -22 -11 -28 -3 -5 1 -4 10 3 13 10 17 10 21 0 4
-8 6 -7 6 5 1 9 -4 17 -10 17 -5 0 -7 5 -4 10 3 6 4 10 0 10 -3 0 -8 -8 -12
-17z"/>
<path d="M490 445 c7 -9 15 -13 17 -11 7 7 -7 26 -19 26 -6 0 -6 -6 2 -15z"/>
<path d="M710 440 c0 -5 5 -10 10 -10 6 0 10 5 10 10 0 6 -4 10 -10 10 -5 0
-10 -4 -10 -10z"/>
<path d="M740 440 c0 -6 7 -10 15 -10 8 0 15 2 15 4 0 2 -7 6 -15 10 -8 3 -15
1 -15 -4z"/>
<path d="M331 381 c-17 -34 -27 -61 -22 -61 11 0 65 109 58 117 -3 3 -20 -22
-36 -56z"/>
<path d="M850 378 c1 -19 38 -95 39 -79 2 23 -22 91 -31 91 -4 0 -8 -6 -8 -12z"/>
<path d="M392 353 c-5 -15 -14 -37 -18 -48 -7 -18 -6 -18 8 -7 17 13 34 69 25
78 -3 3 -9 -8 -15 -23z"/>
<path d="M639 363 c-13 -16 -12 -17 4 -4 9 7 17 15 17 17 0 8 -8 3 -21 -13z"/>
<path d="M565 359 c-3 -4 2 -6 10 -5 21 3 28 13 10 13 -9 0 -18 -4 -20 -8z"/>
<path d="M800 311 c0 -17 12 -41 20 -41 10 0 1 38 -11 46 -5 3 -9 1 -9 -5z"/>
<path d="M446 294 c-8 -21 -8 -24 3 -24 5 0 11 9 14 20 6 24 -8 27 -17 4z"/>
<path d="M741 264 c0 -11 3 -14 6 -6 3 7 2 16 -1 19 -3 4 -6 -2 -5 -13z"/>
</g>
</svg>
