<?xml version="1.0" encoding="utf-8"?>
<!-- Generator: Adobe Illustrator 26.1.0, SVG Export Plug-In . SVG Version: 6.00 Build 0)  -->
<svg version="1.1" id="Layer_1" xmlns="http://www.w3.org/2000/svg" xmlns:xlink="http://www.w3.org/1999/xlink" x="0px" y="0px"
	 viewBox="0 0 493 107" style="enable-background:new 0 0 493 107;" xml:space="preserve">
<g>
	<path d="M6.3,33.1c-0.3,0.3-1.1,0-1.9-0.7c-0.7-0.8-1-1.7-0.6-2c5.7-5.9,17.6-11.5,29.2-13.7c9.9-1.9,19.8-1.2,25.7,3.9
		c7.3,6.5,3.3,18.4-5.7,32.1c0.2,0,0.3,0,0.5,0c12.2-10.2,29.8-22.5,51.9-31.2c28.3-11.4,36.1-8.3,37.9-3.8c1,2.3,0,4.6-0.3,5.7
		l-0.2,0.3c-0.2,0.5-1,0.3-1.7-0.3c-0.7-0.7-1.2-1.7-1-2.2l0.2-0.3c0.3-0.9,1-2.8,0.6-4c-1-2.3-7.2-2.9-33.1,7.5
		c-20.4,8.2-37,19.3-49.1,29c2.8,1.1,5.6,3.5,8.3,7.7c6.5,9.8,11.2,16.1,16.7,17.7c6,1.7,13.3-1.2,30.5-17.2c0.4-0.3,1.3,0.1,2,0.8
		c0.7,0.8,0.9,1.7,0.5,2C98.8,80.4,91.2,83.5,84.6,81.6c-7.1-2.1-12.6-9.2-20-20.4C61.9,57,59,55.4,56,55.3
		C43.6,65.7,36.7,73.7,36.7,73.7v0.1c-6.3,7.3-13.1,14.7-19.6,21.5c-0.3,0.4-1.1,0.1-1.8-0.7c-0.8-0.7-1-1.7-0.7-2
		c6.4-6.8,13.2-14.2,19.5-21.5c0.3-0.6,5.2-10.1,12.1-15.3c1.3-1.7,2.5-3.5,3.7-5.1c8.7-13,13.1-23.8,8-28.3
		c-4.7-4.2-13.6-4.5-22.9-2.7C23.6,21.9,12,27.3,6.3,33.1z"/>
	<path d="M122.7,63.7c-4.1,2.1-8.7,2.6-9,2.6c-5.9,12.7,17.6,1.9,20.3-3c0.3-0.5,1.1-1.1,1.9-0.4c0.7,0.7,0.7,1,0.4,1.6
		c-2.4,4.3-16,13.7-22,10.3c-3-1.7-4.8-5.1-4.1-8.5c0.4-2.2,1.7-4.4,3.5-6.4c1.7-1.9,3.7-3.7,5.7-5.1c2.5-1.7,4.9-2.8,5.8-2.6
		c0.8,0.2,1.5,0.6,2.1,1.3c0.9,1,1.2,2.1,1,3.1c-0.1,0.8-0.4,1.6-0.9,2.4C126.5,60.8,124.7,62.7,122.7,63.7z M116.5,62.3
		c1.2-0.3,2.5-0.9,3.9-1.5c1.8-1,3.4-2.8,4.4-4.4c0.2-0.3,0.3-0.6,0.4-1c-1,0.4-2.1,1.1-3.4,2.1C120,58.9,118,60.5,116.5,62.3z"/>
	<path d="M136.8,58c0.3-0.4,1.1-0.3,1.8,0.4c0.8,0.7,1.1,1.7,0.9,2.1l-2.2,3.9c4.7-3.9,9.8-7.7,11.7-7.2h0.2c2.6,0.8,3,2.4,2.4,4.6
		c-0.3,1-0.9,2.1-1.5,3.4c-1.1,2.3-2.4,4.8-2.4,4.8c2.8,1.8,12.2-6.4,12.3-6.4c0.3-0.3,1.2-1.5,1.9-0.7c0.8,0.7,0.3,0.9-0.1,1.3
		c0,0-9.5,11.2-14,8.3c-3.9-2.5-2-6.4-0.3-9.7c0.3-0.7,0.7-1.4,1-2.1c-5,2.6-16.5,13.7-16.9,14c-0.3,0.3-1,0.1-1.7-0.5
		c-0.7-0.8-1.1-1.7-0.9-2.1L136.8,58z"/>
	<path d="M162.8,58c0.3-0.4,1.1-0.3,1.8,0.4c0.8,0.7,1.1,1.7,0.9,2.1l-2.2,3.9c4.7-3.9,9.8-7.7,11.7-7.2h0.2c2.6,0.8,3,2.4,2.4,4.6
		c-0.3,1-0.9,2.1-1.5,3.4c-1.1,2.3-2.4,4.8-2.4,4.8c2.8,1.8,12.2-6.4,12.3-6.4c0.3-0.3,1.2-1.5,1.9-0.7c0.8,0.7,0.3,0.9-0.1,1.3
		c0,0-9.5,11.2-14,8.3c-3.9-2.5-2-6.4-0.3-9.7c0.3-0.7,0.7-1.4,1-2.1c-5,2.6-16.5,13.7-16.9,14c-0.3,0.3-1,0.1-1.7-0.5
		c-0.7-0.8-1.1-1.7-0.9-2.1L162.8,58z"/>
	<path d="M232.3,80c0.7,0.1,1.6,0.8,2,1.7c0.4,0.8,0.3,1.4-0.3,1.4c-18.4-1.6-32-1.2-41.9,0.2c-5.8,9.8-12.4,19.3-15.3,19.3
		c-4-0.1-7.5-2.3-9.2-5.3c-1-1.7-1.3-3.7-0.7-5.7c0.6-1.7,1.9-3.5,4.3-5.1c3.6-2.5,9.5-4.8,18.5-6.2c2.3-3.8,4.4-7.7,6.3-11
		c-2.7,2.3-5.5,4.2-7.3,4c-0.8-0.1-1.4-0.3-2-0.6c-1.7-1-2.7-2.4-2.7-4.3c-0.1-1,0.3-2.3,0.9-3.7c1.1-2.8,3.4-6.2,6.2-9.5
		c0.3-0.4,1.2-0.1,1.9,0.6c0.7,0.8,1,1.7,0.7,2.1c-2.8,3.2-5,6.5-6.1,9.2c-0.2,0.3-0.3,2.3,0.2,2.6c6,1.3,16.3-13.5,15.6-14v0.1
		c0.3-0.4,1-0.2,1.8,0.5c0.7,0.7,1.1,1.6,0.9,2l-1.9,3.4l-0.1,0.1c0,0.1-4.4,8.6-9.7,17.9C203.7,78.7,216.2,78.6,232.3,80z
		 M187.5,84c-6.5,1.4-11.1,3.2-13.9,5.3c-2.2,1.5-3.4,3.1-3.9,4.6c-0.4,1.4-0.3,2.5,0.2,3.4c0.8,1.2,2.7,2.1,5.1,2.2
		C177.3,99.5,182.4,92.4,187.5,84z"/>
	<path d="M287,42.1c0.3,0,0.6-0.1,1-0.1l5.1-8.6l-0.3-0.3c-0.4-0.4-0.7-0.8-0.8-1.2c-0.1-0.3-0.1-0.6,0.1-0.8l6.7-7.2
		c0.3-0.2,0.5-0.2,0.9-0.1c0.3,0.1,0.7,0.3,1,0.8c0.3,0.3,0.6,0.7,0.8,1c0.1,0.3,0.1,0.6,0,0.9l-9,15.2c1.3-0.1,2.7-0.1,4.2-0.1
		c5.5,0,11,0.6,16.5,1.9c5.3-1.8,10.1-4.5,14.2-8c2.4-2.2,4.2-4.4,5.1-7c1.1-3,1.2-5.9,0.1-8.8c-1-2.6-3.2-5-6.4-7.2
		c-4.7-3.2-11.7-5.6-21.1-7c-7.7-1-16.3-0.3-25.6,2c-9.3,2.3-18.3,6.3-26.8,11.7c-7.1,4.5-13.2,9.9-18.2,16.3
		c-5,6.4-8.3,13.5-9.7,21.4c-0.1,0.3-0.3,0.4-0.5,0.4c-0.3,0-0.7-0.2-1-0.4c-0.4-0.3-0.7-0.7-1-1.1c-0.3-0.4-0.3-0.8-0.3-1
		c1.5-8.1,4.7-15.3,9.8-21.8c5-6.4,11.2-11.9,18.5-16.5c8.6-5.5,17.7-9.4,27.2-11.8c9.5-2.3,18.2-3,26.1-2
		c9.8,1.5,17.3,4.1,22.5,7.7c4.5,3,7.6,6.5,9.1,10.4c1.3,3.6,1.4,7,0.1,10.4c-1,2.6-2.9,5-5.4,7.3c-3.3,2.9-7,5.1-11.2,6.9
		c3.7,1.4,6.9,3.3,9.6,5.7s4.4,5.4,5.4,9.1c0.6,2.6,0.4,5.1-0.4,7.6c-2,5-6.3,9.5-12.9,13.4s-14.4,7-23.4,9.1
		c-7.9,1.8-15.9,2.8-24.1,2.7c-8.3-0.1-15.9-1.3-23-3.8c-7.6-3-11.6-7-11.9-12.2c-0.3-4.8,2.1-9.4,7-13.7c4.9-4.3,11-7.2,18.2-8.7
		c5.7-1.1,11.3-0.7,16.9,1.2l3.5-5.9c-1.7-0.5-3-1.2-3.9-2.1c-0.4-0.5-0.8-1-0.9-1.6h-0.1c-0.2-1,0.5-1.7,2-2.3
		C282,42.9,284.2,42.5,287,42.1z M291.2,50.5c-1.5,0-2.8-0.1-4-0.3l-3.8,6.5c5.6,2.7,10.5,7.5,14.8,14.5c0.3,0.4,0.4,0.8,0.3,1
		s-0.3,0.4-0.5,0.5c-0.3-0.1-0.7-0.3-1-0.5c-0.4-0.3-0.8-0.6-1-1c-3.8-6.3-8.4-10.4-13.7-12.5l-5,8.5c-0.2,0.3-0.4,0.3-0.8,0.2
		c-0.3-0.1-0.7-0.3-1-0.7c-0.4-0.3-0.7-0.7-0.9-1.1c-0.2-0.4-0.2-0.7,0-1l4.2-7c-4.4-1.1-9-1.2-13.5-0.3c-7,1.5-13,4.3-17.8,8.4
		c-4.6,4.1-6.9,8.3-6.7,12.6c0.2,3,2.9,5.6,8.1,7.6c6.9,2.4,14.3,3.7,22.4,3.7c8,0.1,15.8-0.9,23.6-2.7c9-2.1,16.6-5,23.1-9
		c6.4-3.8,10.6-8.2,12.5-13c0.8-2.2,0.9-4.3,0.4-6.4c-0.8-3.1-2.6-5.7-5.5-7.7c-2.9-1.9-6.3-3.4-10.2-4.4c-1.7,0.6-3.4,1.1-5.1,1.6
		C303,49.8,296.7,50.6,291.2,50.5z M289.5,47.5c5.1,0.1,11.6-0.6,18.2-2.3c-3.2-0.3-6.4-0.5-9.3-0.5c-3.5,0-6.7,0.2-9.4,0.5
		c-2.7,0.3-4.9,0.8-6.2,1.3c-0.4,0.2-0.7,0.3-1,0.4C283.2,47.2,285.9,47.5,289.5,47.5z"/>
	<path d="M356.4,61.4c0.3,0.9,0.1,1.4-0.6,1.2s-1.6-1-1.9-1.7c-1.7-1.7-6,0.3-7.6,1.7c-3.2,2.6-5,5.7-6,9.7c3-0.9,11-10.1,11-10.1
		c0.3-0.3,1.1-0.1,1.9,0.7c0.6,0.7,1,1.5,0.7,1.9c-0.2,0.4-1.2,2.7-0.7,5.1c0.3,2.1,11.7-7.4,11.8-7.5c0.3-0.3,1-0.8,1.7-0.1
		c0.7,0.8,0.6,1.5,0.3,1.8c-5.7,5.1-9.1,8.2-11.5,9.4c-4,2.1-7,0.9-7-3.4c-3.1,3-6.4,5.7-8.3,4.8c-0.7-0.3-1.2-0.8-1.7-1.3
		c-0.9-1.1-1.2-2.3-1-3.7c0.1-1,0.4-2.2,1-3.3c1.1-2.4,3.1-5.1,5.4-7C347.8,56.5,354.9,56.3,356.4,61.4z"/>
	<path d="M370,53.6c0.3-0.4,1.1-0.2,1.8,0.5c0.8,0.7,1.1,1.7,0.9,2.1l-3.2,5.1c3-1.5,7.2-2.9,9-0.7c0.8,0.9,0.5,2.9,1.7,3
		c1.7,0.1,4.1-0.3,6.4-1c0.5-0.2,1-0.6,1.6,0.2c0.6,0.9,0.3,1.1-0.3,1.2c-2.5,0.8-6.7,1.7-8.5,1.5c-2.3-0.2-3-0.8-4.9-3
		c-1.3-1.6-9,5.3-9,5.3c-0.2,0.1-4.7,7.7-5.1,8.5c-0.3,0.4-1.1,0.2-1.8-0.5c-0.8-0.7-1.1-1.7-0.9-2.1L370,53.6z"/>
	<path d="M405.6,30.8c0.3-0.4,1-0.2,1.8,0.5c0.7,0.7,1.1,1.7,0.9,2.1L388.9,65c3.6-3.3,7.2-6.4,10-7.6c1.6-0.7,2.9-0.6,3.9,0.2
		l0.1,0.1c1.3,1,1.9,2.4,1.9,4c0.1,1-0.2,2.3-0.5,3.6c-1.4,4.5-5,10.2-8.8,11.1c-5.3,1.3-7.4-1.7-8.3-4.5c-4.2,4.2-7.3,7.8-7.4,7.8
		c-0.3,0.3-1,0.1-1.7-0.6c-0.8-0.7-1.1-1.7-0.9-2.1L405.6,30.8z M401.2,60.3c-3.2,1.5-7.7,5.3-11.7,9.2c0,1,0.3,4.7,3.9,3.8
		c3.4-0.9,6.8-6.2,8-10.4c0.3-1,0.5-2.1,0.6-3C401.7,60,401.5,60.2,401.2,60.3z M402.5,59.7c0,0-0.1,0-0.2,0.1
		C402.5,59.8,402.6,59.9,402.5,59.7L402.5,59.7z"/>
	<path d="M418.5,63.7c-4.1,2.1-8.7,2.6-9,2.6c-5.9,12.7,17.6,1.9,20.3-3c0.3-0.5,1.1-1.1,1.9-0.4c0.7,0.7,0.7,1,0.4,1.6
		c-2.4,4.3-16,13.7-22,10.3c-3-1.7-4.8-5.1-4.1-8.5c0.4-2.2,1.7-4.4,3.5-6.4c1.7-1.9,3.7-3.7,5.7-5.1c2.5-1.7,4.9-2.8,5.8-2.6
		c0.8,0.2,1.5,0.6,2.1,1.3c0.9,1,1.2,2.1,1,3.1c-0.1,0.8-0.4,1.6-0.9,2.4C422.4,60.8,420.6,62.7,418.5,63.7z M412.3,62.3
		c1.2-0.3,2.5-0.9,3.9-1.5c1.8-1,3.4-2.8,4.4-4.4c0.2-0.3,0.3-0.6,0.4-1c-1,0.4-2.1,1.1-3.4,2.1C415.9,58.9,413.9,60.5,412.3,62.3z"
		/>
	<path d="M435.7,56.1c0.4-0.3,1.3,0,2,0.8c0.7,0.8,1,1.7,0.5,2c-1.9,1.7-5,5.4-7,9.1c-1.2,2.4-1.1,3.8-0.3,4.3
		c3.6,0.5,13.2-8.9,13.2-9c0.3-0.3,1-1,1.7-0.3c0.8,0.8,0.4,1,0.1,1.4c-0.1,0-14.5,15.7-18.3,9.1c-1.2-2.2-0.6-5.1,0.9-8.1
		C430.4,61.6,433.7,57.7,435.7,56.1z M441.1,53.6c-0.3,0.4-1.2,0.1-1.9-0.6c-0.7-0.8-1-1.7-0.7-2.1l4.9-5.6c0.3-0.4,1.1-0.1,1.9,0.6
		c0.7,0.8,1,1.7,0.7,2.1L441.1,53.6z"/>
	<path d="M449.7,53.6c0.3-0.4,1.1-0.2,1.8,0.5c0.8,0.7,1.1,1.7,0.9,2.1l-3.2,5.1c3-1.5,7.2-2.9,9-0.7c0.8,0.9,0.5,2.9,1.7,3
		c1.7,0.1,4.1-0.3,6.4-1c0.5-0.2,1-0.6,1.6,0.2c0.6,0.9,0.3,1.1-0.3,1.2c-2.5,0.8-6.7,1.7-8.5,1.5c-2.3-0.2-3-0.8-4.9-3
		c-1.3-1.6-9,5.3-9,5.3c-0.2,0.1-4.7,7.7-5.1,8.5c-0.3,0.4-1.1,0.2-1.8-0.5c-0.8-0.7-1.1-1.7-0.9-2.1L449.7,53.6z"/>
	<path d="M469.4,58.6c0.3-0.3,1.2,0.1,1.9,0.9s0.9,1.7,0.5,2c-0.3,0.2-0.5,0.3-0.7,0.5c-1.8,1.7-3.3,4.4-4.3,7
		c-0.7,2.3-1,4.4-0.6,5.2c0.4,0.2,1,0.2,1.7,0c0.8-0.3,1.7-0.8,2.6-1.7c1.2-1,2.3-2.6,3.4-4.6c0.6-1.1,1-2.3,1.4-3.6
		c-1.6-1.3-2.7-2.9-3.4-4.4s-1-3.1-0.9-4.3c0.2-1.2,0.7-2.1,1.7-2.3c0.8-0.1,1.5,0.1,2.2,0.4c1.1,0.6,2.1,1.7,2.7,3
		c0.5,1,0.8,2,1,3.1c0.2,1.1,0.2,2.4,0,3.7c1.9,0.3,4.8,0.7,7.8-1c0.4-0.3,0.9-0.6,1.6,0.2c0.6,0.8,0.5,1.4,0.1,1.7
		c-4.1,2.3-7.1,2.6-9.8,1.7c-0.3,1.5-0.9,3-1.7,4.4c-1,2-2.3,3.7-3.6,4.9c-1,0.9-2,1.6-3,1.8c-1.1,0.3-2.3,0.3-3.4-0.3
		c-0.6-0.3-1.2-0.8-1.7-1.4c-0.2-0.2-0.3-0.3-0.5-0.5c-1.4-2-1.3-5.2-0.3-8.3c1-2.9,2.6-5.7,4.5-7.5C468.9,59,469.2,58.8,469.4,58.6
		z M475.8,62.3c0.2-1.4,0.2-2.8,0-3.9c-0.1-0.8-0.3-1.5-0.4-1.9c-0.1,0,0.1,0,0.1,0c-0.1-0.1-0.3-0.1-0.6,0c-0.5,0-0.8,0.5-0.9,1.3
		c-0.1,0.8,0.1,1.7,0.5,2.7C474.7,61.2,475.2,61.8,475.8,62.3z"/>
</g>
</svg>
